# xmcd
#
# Track frame offsets:
#	150
#	16750
#	28862
#	42507
#	55445
#	69607
#	88740
#	100135
#	113210
#	123817
#	133605
#	150025
#
# Disc length: 2175 seconds
#
# Revision: 1
# Processed by: cddbd v1.4PL0 Copyright (c) Steve Scherf et al.
# Submitted via: audiograbber 1.81.02
#
DISCID=96087d0c
DTITLE=Bill Harrell - The Cat Came Back
DYEAR=1998
DGENRE=Country
TTITLE0=The Cat Came Back
TTITLE1=Hobo Bill's Last Ride
TTITLE2=Look At Me And Tell Me
TTITLE3=Trouble In Mind
TTITLE4=Little Maggle
TTITLE5=Soldier's Last Letter
TTITLE6=Tennessee Border
TTITLE7=The Bagge Coach Ahead
TTITLE8=This Danged Old Town
TTITLE9=It Makes No Difference Now
TTITLE10=The Bizzard
TTITLE11=Aren't You Glad To Be Saved
EXTD=
EXTT0=
EXTT1=
EXTT2=
EXTT3=
EXTT4=
EXTT5=
EXTT6=
EXTT7=
EXTT8=
EXTT9=
EXTT10=
EXTT11=
PLAYORDER=
